<?xml version="1.0" encoding="UTF-8"?>
<svg id="Camada_2" data-name="Camada 2" xmlns="http://www.w3.org/2000/svg" viewBox="0 0 44.37 44">
  <defs>
    <style>
      .cls-1 {
        fill: #f2afef;
      }

      .cls-1, .cls-2 {
        stroke-width: 0px;
      }

      .cls-2 {
        fill: #ffecec;
      }

      .cls-3, .cls-4, .cls-5, .cls-6 {
        stroke-linecap: round;
      }

      .cls-3, .cls-4, .cls-7 {
        fill: none;
      }

      .cls-3, .cls-4, .cls-6 {
        stroke-linejoin: round;
      }

      .cls-3, .cls-5 {
        stroke: #33186b;
        stroke-width: 5px;
      }

      .cls-4, .cls-7, .cls-6 {
        stroke: #ffecec;
      }

      .cls-5 {
        fill: #fff;
      }

      .cls-5, .cls-7 {
        stroke-miterlimit: 10;
      }

      .cls-6 {
        fill: #fae7f3;
      }
    </style>
  </defs>
  <g id="botoes_up">
    <g>
      <rect id="adicao_up" class="cls-6" x=".87" y=".5" width="43" height="43" rx="9.23" ry="9.23"/>
      <g>
        <g>
          <line class="cls-1" x1="39.29" y1="42.97" x2="41.89" y2="39.98"/>
          <line class="cls-4" x1="39.29" y1="42.97" x2="41.89" y2="39.98"/>
          <line class="cls-4" x1="39.29" y1="42.97" x2="41.89" y2="39.98"/>
          <line class="cls-2" x1="39.29" y1="42.97" x2="41.89" y2="39.98"/>
        </g>
        <g>
          <line class="cls-7" x1=".5" y1="6.74" x2="3.09" y2="3.75"/>
          <line class="cls-4" x1=".5" y1="6.74" x2="3.09" y2="3.75"/>
          <line class="cls-2" x1=".5" y1="6.74" x2="3.09" y2="3.75"/>
        </g>
      </g>
      <g>
        <line class="cls-5" x1="28.94" y1="9.87" x2="16.58" y2="9.87"/>
        <line class="cls-5" x1="16.58" y1="20.66" x2="16.58" y2="9.87"/>
        <path class="cls-3" d="M16.63,20.71c1.44-1.51,3.48-2.45,5.73-2.45,4.38,0,7.94,3.55,7.94,7.94s-3.55,7.94-7.94,7.94c-3.19,0-5.94-1.88-7.2-4.6"/>
      </g>
    </g>
  </g>
</svg>