<?xml version="1.0" encoding="UTF-8"?>
<svg id="Camada_2" data-name="Camada 2" xmlns="http://www.w3.org/2000/svg" xmlns:xlink="http://www.w3.org/1999/xlink" viewBox="0 0 276.83 435.56">
  <defs>
    <style>
      .cls-1, .cls-2, .cls-3, .cls-4, .cls-5, .cls-6, .cls-7, .cls-8, .cls-9, .cls-10 {
        stroke: #ffecec;
      }

      .cls-1, .cls-2, .cls-11, .cls-4, .cls-12, .cls-7, .cls-9, .cls-13 {
        stroke-linecap: round;
      }

      .cls-1, .cls-2, .cls-11, .cls-4, .cls-9 {
        stroke-linejoin: round;
      }

      .cls-1, .cls-14 {
        fill: #f2afef;
      }

      .cls-2, .cls-10 {
        fill: #e6b9de;
      }

      .cls-3 {
        fill: #e699f3;
      }

      .cls-3, .cls-12, .cls-5, .cls-6, .cls-7, .cls-8, .cls-13, .cls-10 {
        stroke-miterlimit: 10;
      }

      .cls-14, .cls-15, .cls-16, .cls-17, .cls-18, .cls-19, .cls-20, .cls-21, .cls-22 {
        stroke-width: 0px;
      }

      .cls-15 {
        fill: #ffecec;
      }

      .cls-11, .cls-4, .cls-8 {
        fill: none;
      }

      .cls-11, .cls-12 {
        stroke: #33186b;
      }

      .cls-11, .cls-12, .cls-13 {
        stroke-width: 5px;
      }

      .cls-12, .cls-7 {
        fill: #fff;
      }

      .cls-5 {
        fill: #c499f3;
      }

      .cls-6 {
        fill: #96e9c6;
      }

      .cls-9 {
        fill: #fae7f3;
      }

      .cls-13 {
        fill: #7360df;
        stroke: #7360df;
      }

      .cls-16 {
        fill: url(#Gradiente_sem_nome_11-2);
      }

      .cls-17 {
        fill: url(#Gradiente_sem_nome_11-4);
      }

      .cls-18 {
        fill: url(#Gradiente_sem_nome_11-3);
      }

      .cls-19 {
        fill: url(#Gradiente_sem_nome_11-6);
      }

      .cls-20 {
        fill: url(#Gradiente_sem_nome_11-7);
      }

      .cls-21 {
        fill: url(#Gradiente_sem_nome_11-5);
      }

      .cls-22 {
        fill: url(#Gradiente_sem_nome_11);
      }
    </style>
    <linearGradient id="Gradiente_sem_nome_11" data-name="Gradiente sem nome 11" x1="226.79" y1="40.22" x2="226.79" y2="91.7" gradientUnits="userSpaceOnUse">
      <stop offset="0" stop-color="#96e9c6"/>
      <stop offset=".37" stop-color="#94e6c5"/>
      <stop offset=".63" stop-color="#90dcc4"/>
      <stop offset=".86" stop-color="#89cdc2"/>
      <stop offset="1" stop-color="#83c0c1"/>
    </linearGradient>
    <linearGradient id="Gradiente_sem_nome_11-2" data-name="Gradiente sem nome 11" x1="197.93" x2="197.93" xlink:href="#Gradiente_sem_nome_11"/>
    <linearGradient id="Gradiente_sem_nome_11-3" data-name="Gradiente sem nome 11" x1="169.07" x2="169.07" xlink:href="#Gradiente_sem_nome_11"/>
    <linearGradient id="Gradiente_sem_nome_11-4" data-name="Gradiente sem nome 11" x1="140.22" x2="140.22" xlink:href="#Gradiente_sem_nome_11"/>
    <linearGradient id="Gradiente_sem_nome_11-5" data-name="Gradiente sem nome 11" x1="111.36" x2="111.36" xlink:href="#Gradiente_sem_nome_11"/>
    <linearGradient id="Gradiente_sem_nome_11-6" data-name="Gradiente sem nome 11" x1="82.5" x2="82.5" xlink:href="#Gradiente_sem_nome_11"/>
    <linearGradient id="Gradiente_sem_nome_11-7" data-name="Gradiente sem nome 11" x1="53.65" x2="53.65" xlink:href="#Gradiente_sem_nome_11"/>
  </defs>
  <g id="calculadora">
    <g id="coracoes">
      <g>
        <rect class="cls-3" x="-78.51" y="86.07" width="428" height="269.98" rx="23.34" ry="23.34" transform="translate(356.56 85.57) rotate(90)"/>
        <line class="cls-7" x1="13.12" y1="7.4" x2="7.82" y2="13.47"/>
        <line class="cls-7" x1="271.19" y1="419.77" x2="263.36" y2="428.5"/>
        <rect class="cls-1" x="-72.66" y="79.51" width="428" height="269.98" rx="23.34" ry="23.34" transform="translate(355.84 73.16) rotate(90)"/>
        <path class="cls-5" d="M243.19,26.43H41.76c-2.98,0-5.56,1.64-6.93,4.06,1.31-.96,2.92-1.53,4.67-1.53h201.43c4.39,0,7.95,3.56,7.95,7.95v58.1c0,1.41-.37,2.74-1.02,3.89,1.98-1.45,3.28-3.78,3.28-6.42v-58.1c0-4.39-3.56-7.95-7.95-7.95Z"/>
        <path class="cls-6" d="M248.88,36.91c0-4.39-3.56-7.95-7.95-7.95H39.5c-1.75,0-3.36.57-4.67,1.53-.65,1.15-1.02,2.48-1.02,3.89v58.1c0,4.39,3.56,7.95,7.95,7.95h201.43c1.75,0,3.36-.57,4.67-1.53.65-1.15,1.02-2.48,1.02-3.89v-58.1Z"/>
        <rect class="cls-22" x="213.29" y="40.22" width="26.99" height="51.48" rx="2.04" ry="2.04"/>
        <rect class="cls-16" x="184.44" y="40.22" width="26.99" height="51.48" rx="2.04" ry="2.04"/>
        <rect class="cls-18" x="155.58" y="40.22" width="26.99" height="51.48" rx="2.04" ry="2.04"/>
        <rect class="cls-17" x="126.72" y="40.22" width="26.99" height="51.48" rx="2.04" ry="2.04"/>
        <rect class="cls-21" x="97.87" y="40.22" width="26.99" height="51.48" rx="2.04" ry="2.04"/>
        <rect class="cls-19" x="69.01" y="40.22" width="26.99" height="51.48" rx="2.04" ry="2.04"/>
        <rect class="cls-20" x="40.15" y="40.22" width="26.99" height="51.48" rx="2.04" ry="2.04"/>
        <rect id="adicao_down" class="cls-2" x="33.81" y="358.84" width="43" height="43" rx="9.23" ry="9.23"/>
        <rect id="adicao_up" class="cls-9" x="36.09" y="356.27" width="43" height="43" rx="9.23" ry="9.23"/>
        <rect id="adicao_down-2" data-name="adicao_down" class="cls-2" x="207.84" y="358.84" width="43" height="43" rx="9.23" ry="9.23"/>
        <rect id="adicao_up-2" data-name="adicao_up" class="cls-9" x="210.12" y="356.27" width="43" height="43" rx="9.23" ry="9.23"/>
        <rect id="adicao_down-3" data-name="adicao_down" class="cls-2" x="149.83" y="358.84" width="43" height="43" rx="9.23" ry="9.23"/>
        <rect id="adicao_up-3" data-name="adicao_up" class="cls-9" x="152.11" y="356.27" width="43" height="43" rx="9.23" ry="9.23"/>
        <rect id="adicao_down-4" data-name="adicao_down" class="cls-2" x="91.82" y="358.84" width="43" height="43" rx="9.23" ry="9.23"/>
        <rect id="adicao_up-4" data-name="adicao_up" class="cls-9" x="94.1" y="356.27" width="43" height="43" rx="9.23" ry="9.23"/>
        <rect id="adicao_down-5" data-name="adicao_down" class="cls-10" x="207.84" y="127.93" width="43" height="43" rx="9.23" ry="9.23"/>
        <rect id="adicao_up-5" data-name="adicao_up" class="cls-9" x="210.12" y="125.36" width="43" height="43" rx="9.23" ry="9.23"/>
        <g>
          <line class="cls-14" x1="248.55" y1="167.82" x2="251.14" y2="164.84"/>
          <line class="cls-4" x1="248.55" y1="167.82" x2="251.14" y2="164.84"/>
          <line class="cls-4" x1="248.55" y1="167.82" x2="251.14" y2="164.84"/>
          <line class="cls-15" x1="248.55" y1="167.82" x2="251.14" y2="164.84"/>
        </g>
        <g>
          <line class="cls-8" x1="209.75" y1="131.59" x2="212.34" y2="128.6"/>
          <line class="cls-4" x1="209.75" y1="131.59" x2="212.34" y2="128.6"/>
          <line class="cls-15" x1="209.75" y1="131.59" x2="212.34" y2="128.6"/>
        </g>
        <rect id="adicao_down-6" data-name="adicao_down" class="cls-10" x="33.81" y="185.66" width="43" height="43" rx="9.23" ry="9.23"/>
        <rect id="adicao_up-6" data-name="adicao_up" class="cls-9" x="36.09" y="183.08" width="43" height="43" rx="9.23" ry="9.23"/>
        <rect id="adicao_down-7" data-name="adicao_down" class="cls-2" x="207.84" y="185.66" width="43" height="43" rx="9.23" ry="9.23"/>
        <rect id="adicao_up-7" data-name="adicao_up" class="cls-9" x="210.12" y="183.08" width="43" height="43" rx="9.23" ry="9.23"/>
        <rect id="adicao_down-8" data-name="adicao_down" class="cls-2" x="149.83" y="185.66" width="43" height="43" rx="9.23" ry="9.23"/>
        <rect id="adicao_up-8" data-name="adicao_up" class="cls-9" x="152.11" y="183.08" width="43" height="43" rx="9.23" ry="9.23"/>
        <rect id="adicao_down-9" data-name="adicao_down" class="cls-10" x="91.82" y="185.66" width="43" height="43" rx="9.23" ry="9.23"/>
        <rect id="adicao_up-9" data-name="adicao_up" class="cls-9" x="94.1" y="183.08" width="43" height="43" rx="9.23" ry="9.23"/>
        <rect id="adicao_down-10" data-name="adicao_down" class="cls-2" x="33.81" y="243.38" width="43" height="43" rx="9.23" ry="9.23"/>
        <rect id="adicao_up-10" data-name="adicao_up" class="cls-9" x="36.09" y="240.81" width="43" height="43" rx="9.23" ry="9.23"/>
        <rect id="adicao_down-11" data-name="adicao_down" class="cls-2" x="207.84" y="243.38" width="43" height="43" rx="9.23" ry="9.23"/>
        <rect id="adicao_up-11" data-name="adicao_up" class="cls-9" x="210.12" y="240.81" width="43" height="43" rx="9.23" ry="9.23"/>
        <rect id="adicao_down-12" data-name="adicao_down" class="cls-2" x="149.83" y="243.38" width="43" height="43" rx="9.23" ry="9.23"/>
        <rect id="adicao_up-12" data-name="adicao_up" class="cls-9" x="152.11" y="240.81" width="43" height="43" rx="9.23" ry="9.23"/>
        <rect id="adicao_down-13" data-name="adicao_down" class="cls-10" x="91.82" y="243.38" width="43" height="43" rx="9.23" ry="9.23"/>
        <rect id="adicao_up-13" data-name="adicao_up" class="cls-9" x="94.1" y="240.81" width="43" height="43" rx="9.23" ry="9.23"/>
        <rect id="adicao_down-14" data-name="adicao_down" class="cls-2" x="33.81" y="301.11" width="43" height="43" rx="9.23" ry="9.23"/>
        <rect id="adicao_up-14" data-name="adicao_up" class="cls-9" x="36.09" y="298.54" width="43" height="43" rx="9.23" ry="9.23"/>
        <rect id="adicao_down-15" data-name="adicao_down" class="cls-2" x="207.84" y="301.11" width="43" height="43" rx="9.23" ry="9.23"/>
        <rect id="adicao_up-15" data-name="adicao_up" class="cls-9" x="210.12" y="298.54" width="43" height="43" rx="9.23" ry="9.23"/>
        <rect id="adicao_down-16" data-name="adicao_down" class="cls-2" x="149.83" y="301.11" width="43" height="43" rx="9.23" ry="9.23"/>
        <rect id="adicao_up-16" data-name="adicao_up" class="cls-9" x="152.11" y="298.54" width="43" height="43" rx="9.23" ry="9.23"/>
        <rect id="adicao_down-17" data-name="adicao_down" class="cls-2" x="91.82" y="301.11" width="43" height="43" rx="9.23" ry="9.23"/>
        <rect id="adicao_up-17" data-name="adicao_up" class="cls-9" x="94.1" y="298.54" width="43" height="43" rx="9.23" ry="9.23"/>
        <g>
          <g>
            <line class="cls-14" x1="74.51" y1="225.55" x2="77.1" y2="222.56"/>
            <line class="cls-4" x1="74.51" y1="225.55" x2="77.1" y2="222.56"/>
            <line class="cls-4" x1="74.51" y1="225.55" x2="77.1" y2="222.56"/>
            <line class="cls-15" x1="74.51" y1="225.55" x2="77.1" y2="222.56"/>
          </g>
          <g>
            <line class="cls-8" x1="35.72" y1="189.32" x2="38.31" y2="186.33"/>
            <line class="cls-4" x1="35.72" y1="189.32" x2="38.31" y2="186.33"/>
            <line class="cls-15" x1="35.72" y1="189.32" x2="38.31" y2="186.33"/>
          </g>
        </g>
        <g>
          <g>
            <line class="cls-14" x1="132.52" y1="225.55" x2="135.11" y2="222.56"/>
            <line class="cls-4" x1="132.52" y1="225.55" x2="135.11" y2="222.56"/>
            <line class="cls-4" x1="132.52" y1="225.55" x2="135.11" y2="222.56"/>
            <line class="cls-15" x1="132.52" y1="225.55" x2="135.11" y2="222.56"/>
          </g>
          <g>
            <line class="cls-8" x1="93.73" y1="189.32" x2="96.32" y2="186.33"/>
            <line class="cls-4" x1="93.73" y1="189.32" x2="96.32" y2="186.33"/>
            <line class="cls-15" x1="93.73" y1="189.32" x2="96.32" y2="186.33"/>
          </g>
        </g>
        <g>
          <g>
            <line class="cls-14" x1="190.53" y1="225.55" x2="193.13" y2="222.56"/>
            <line class="cls-4" x1="190.53" y1="225.55" x2="193.13" y2="222.56"/>
            <line class="cls-4" x1="190.53" y1="225.55" x2="193.13" y2="222.56"/>
            <line class="cls-15" x1="190.53" y1="225.55" x2="193.13" y2="222.56"/>
          </g>
          <g>
            <line class="cls-8" x1="151.74" y1="189.32" x2="154.33" y2="186.33"/>
            <line class="cls-4" x1="151.74" y1="189.32" x2="154.33" y2="186.33"/>
            <line class="cls-15" x1="151.74" y1="189.32" x2="154.33" y2="186.33"/>
          </g>
        </g>
        <g>
          <g>
            <line class="cls-14" x1="248.55" y1="225.55" x2="251.14" y2="222.56"/>
            <line class="cls-4" x1="248.55" y1="225.55" x2="251.14" y2="222.56"/>
            <line class="cls-4" x1="248.55" y1="225.55" x2="251.14" y2="222.56"/>
            <line class="cls-15" x1="248.55" y1="225.55" x2="251.14" y2="222.56"/>
          </g>
          <g>
            <line class="cls-8" x1="209.75" y1="189.32" x2="212.34" y2="186.33"/>
            <line class="cls-4" x1="209.75" y1="189.32" x2="212.34" y2="186.33"/>
            <line class="cls-15" x1="209.75" y1="189.32" x2="212.34" y2="186.33"/>
          </g>
        </g>
        <g>
          <g>
            <line class="cls-14" x1="248.55" y1="283.28" x2="251.14" y2="280.29"/>
            <line class="cls-4" x1="248.55" y1="283.28" x2="251.14" y2="280.29"/>
            <line class="cls-4" x1="248.55" y1="283.28" x2="251.14" y2="280.29"/>
            <line class="cls-15" x1="248.55" y1="283.28" x2="251.14" y2="280.29"/>
          </g>
          <g>
            <line class="cls-8" x1="209.75" y1="247.05" x2="212.34" y2="244.06"/>
            <line class="cls-4" x1="209.75" y1="247.05" x2="212.34" y2="244.06"/>
            <line class="cls-15" x1="209.75" y1="247.05" x2="212.34" y2="244.06"/>
          </g>
        </g>
        <g>
          <g>
            <line class="cls-14" x1="190.53" y1="283.28" x2="193.13" y2="280.29"/>
            <line class="cls-4" x1="190.53" y1="283.28" x2="193.13" y2="280.29"/>
            <line class="cls-4" x1="190.53" y1="283.28" x2="193.13" y2="280.29"/>
            <line class="cls-15" x1="190.53" y1="283.28" x2="193.13" y2="280.29"/>
          </g>
          <g>
            <line class="cls-8" x1="151.74" y1="247.05" x2="154.33" y2="244.06"/>
            <line class="cls-4" x1="151.74" y1="247.05" x2="154.33" y2="244.06"/>
            <line class="cls-15" x1="151.74" y1="247.05" x2="154.33" y2="244.06"/>
          </g>
        </g>
        <g>
          <g>
            <line class="cls-14" x1="132.52" y1="283.28" x2="135.11" y2="280.29"/>
            <line class="cls-4" x1="132.52" y1="283.28" x2="135.11" y2="280.29"/>
            <line class="cls-4" x1="132.52" y1="283.28" x2="135.11" y2="280.29"/>
            <line class="cls-15" x1="132.52" y1="283.28" x2="135.11" y2="280.29"/>
          </g>
          <g>
            <line class="cls-8" x1="93.73" y1="247.05" x2="96.32" y2="244.06"/>
            <line class="cls-4" x1="93.73" y1="247.05" x2="96.32" y2="244.06"/>
            <line class="cls-15" x1="93.73" y1="247.05" x2="96.32" y2="244.06"/>
          </g>
        </g>
        <g>
          <g>
            <line class="cls-14" x1="74.51" y1="283.28" x2="77.1" y2="280.29"/>
            <line class="cls-4" x1="74.51" y1="283.28" x2="77.1" y2="280.29"/>
            <line class="cls-4" x1="74.51" y1="283.28" x2="77.1" y2="280.29"/>
            <line class="cls-15" x1="74.51" y1="283.28" x2="77.1" y2="280.29"/>
          </g>
          <g>
            <line class="cls-8" x1="35.72" y1="247.05" x2="38.31" y2="244.06"/>
            <line class="cls-4" x1="35.72" y1="247.05" x2="38.31" y2="244.06"/>
            <line class="cls-15" x1="35.72" y1="247.05" x2="38.31" y2="244.06"/>
          </g>
        </g>
        <g>
          <g>
            <line class="cls-14" x1="74.51" y1="341.01" x2="77.1" y2="338.02"/>
            <line class="cls-4" x1="74.51" y1="341.01" x2="77.1" y2="338.02"/>
            <line class="cls-4" x1="74.51" y1="341.01" x2="77.1" y2="338.02"/>
            <line class="cls-15" x1="74.51" y1="341.01" x2="77.1" y2="338.02"/>
          </g>
          <g>
            <line class="cls-8" x1="35.72" y1="304.78" x2="38.31" y2="301.79"/>
            <line class="cls-4" x1="35.72" y1="304.78" x2="38.31" y2="301.79"/>
            <line class="cls-15" x1="35.72" y1="304.78" x2="38.31" y2="301.79"/>
          </g>
        </g>
        <g>
          <g>
            <line class="cls-14" x1="132.52" y1="341.01" x2="135.11" y2="338.02"/>
            <line class="cls-4" x1="132.52" y1="341.01" x2="135.11" y2="338.02"/>
            <line class="cls-4" x1="132.52" y1="341.01" x2="135.11" y2="338.02"/>
            <line class="cls-15" x1="132.52" y1="341.01" x2="135.11" y2="338.02"/>
          </g>
          <g>
            <line class="cls-8" x1="93.73" y1="304.78" x2="96.32" y2="301.79"/>
            <line class="cls-4" x1="93.73" y1="304.78" x2="96.32" y2="301.79"/>
            <line class="cls-15" x1="93.73" y1="304.78" x2="96.32" y2="301.79"/>
          </g>
        </g>
        <g>
          <g>
            <line class="cls-14" x1="190.52" y1="341.01" x2="193.11" y2="338.02"/>
            <line class="cls-4" x1="190.52" y1="341.01" x2="193.11" y2="338.02"/>
            <line class="cls-4" x1="190.52" y1="341.01" x2="193.11" y2="338.02"/>
            <line class="cls-15" x1="190.52" y1="341.01" x2="193.11" y2="338.02"/>
          </g>
          <g>
            <line class="cls-8" x1="151.73" y1="304.78" x2="154.32" y2="301.79"/>
            <line class="cls-4" x1="151.73" y1="304.78" x2="154.32" y2="301.79"/>
            <line class="cls-15" x1="151.73" y1="304.78" x2="154.32" y2="301.79"/>
          </g>
        </g>
        <g>
          <g>
            <line class="cls-14" x1="248.55" y1="341.01" x2="251.14" y2="338.02"/>
            <line class="cls-4" x1="248.55" y1="341.01" x2="251.14" y2="338.02"/>
            <line class="cls-4" x1="248.55" y1="341.01" x2="251.14" y2="338.02"/>
            <line class="cls-15" x1="248.55" y1="341.01" x2="251.14" y2="338.02"/>
          </g>
          <g>
            <line class="cls-8" x1="209.75" y1="304.78" x2="212.34" y2="301.79"/>
            <line class="cls-4" x1="209.75" y1="304.78" x2="212.34" y2="301.79"/>
            <line class="cls-15" x1="209.75" y1="304.78" x2="212.34" y2="301.79"/>
          </g>
        </g>
        <g>
          <g>
            <line class="cls-14" x1="248.55" y1="398.74" x2="251.14" y2="395.75"/>
            <line class="cls-4" x1="248.55" y1="398.74" x2="251.14" y2="395.75"/>
            <line class="cls-4" x1="248.55" y1="398.74" x2="251.14" y2="395.75"/>
            <line class="cls-15" x1="248.55" y1="398.74" x2="251.14" y2="395.75"/>
          </g>
          <g>
            <line class="cls-8" x1="209.75" y1="362.51" x2="212.34" y2="359.52"/>
            <line class="cls-4" x1="209.75" y1="362.51" x2="212.34" y2="359.52"/>
            <line class="cls-15" x1="209.75" y1="362.51" x2="212.34" y2="359.52"/>
          </g>
        </g>
        <g>
          <g>
            <line class="cls-14" x1="190.53" y1="398.74" x2="193.13" y2="395.75"/>
            <line class="cls-4" x1="190.53" y1="398.74" x2="193.13" y2="395.75"/>
            <line class="cls-4" x1="190.53" y1="398.74" x2="193.13" y2="395.75"/>
            <line class="cls-15" x1="190.53" y1="398.74" x2="193.13" y2="395.75"/>
          </g>
          <g>
            <line class="cls-8" x1="151.74" y1="362.51" x2="154.33" y2="359.52"/>
            <line class="cls-4" x1="151.74" y1="362.51" x2="154.33" y2="359.52"/>
            <line class="cls-15" x1="151.74" y1="362.51" x2="154.33" y2="359.52"/>
          </g>
        </g>
        <g>
          <g>
            <line class="cls-14" x1="132.52" y1="398.74" x2="135.11" y2="395.75"/>
            <line class="cls-4" x1="132.52" y1="398.74" x2="135.11" y2="395.75"/>
            <line class="cls-4" x1="132.52" y1="398.74" x2="135.11" y2="395.75"/>
            <line class="cls-15" x1="132.52" y1="398.74" x2="135.11" y2="395.75"/>
          </g>
          <g>
            <line class="cls-8" x1="93.73" y1="362.51" x2="96.32" y2="359.52"/>
            <line class="cls-4" x1="93.73" y1="362.51" x2="96.32" y2="359.52"/>
            <line class="cls-15" x1="93.73" y1="362.51" x2="96.32" y2="359.52"/>
          </g>
        </g>
        <g>
          <g>
            <line class="cls-14" x1="74.51" y1="398.74" x2="77.1" y2="395.75"/>
            <line class="cls-4" x1="74.51" y1="398.74" x2="77.1" y2="395.75"/>
            <line class="cls-4" x1="74.51" y1="398.74" x2="77.1" y2="395.75"/>
            <line class="cls-15" x1="74.51" y1="398.74" x2="77.1" y2="395.75"/>
          </g>
          <g>
            <line class="cls-8" x1="35.72" y1="362.51" x2="38.31" y2="359.52"/>
            <line class="cls-4" x1="35.72" y1="362.51" x2="38.31" y2="359.52"/>
            <line class="cls-15" x1="35.72" y1="362.51" x2="38.31" y2="359.52"/>
          </g>
        </g>
        <line class="cls-12" x1="57.59" y1="308.26" x2="57.59" y2="331.82"/>
        <path class="cls-11" d="M107.76,314.29c.42-4.12,3.91-7.33,8.14-7.33,4.52,0,8.18,3.66,8.18,8.18,0,2.4-1.03,4.55-2.68,6.05"/>
        <polyline class="cls-11" points="124.52 331.82 108.02 331.82 121.4 321.19"/>
        <g>
          <path class="cls-11" d="M166.27,312.56c.83-3.5,4.19-5.87,7.83-5.39,3.89.51,5.75,4.48,5.04,7.54-.56,2.44-2.61,4.37-5.53,4.36"/>
          <path class="cls-11" d="M173.61,319.07c4.34,0,7.51,3.62,6.32,8.54-1.07,4.39-6.28,6.4-10.51,4.83-2.25-.83-3.91-2.55-4.75-4.61"/>
        </g>
        <path class="cls-11" d="M66.15,377.77c0,3.38-.53,7.49-1.92,9.8-1.57,2.61-4.14,3.21-6.65,3.21-2.37,0-5.23-.79-6.78-3.14s-1.79-6.27-1.79-9.86c0-3.29.27-6.9,1.6-9.19,1.57-2.71,4.4-3.81,6.97-3.81,2.12,0,4.83,1.23,6.33,3.17,1.84,2.39,2.24,5.87,2.24,9.83Z"/>
        <line class="cls-12" x1="115.6" y1="389.77" x2="115.6" y2="389.77"/>
        <g>
          <line class="cls-12" x1="182.34" y1="371.88" x2="164.88" y2="371.88"/>
          <line class="cls-12" x1="182.34" y1="383.66" x2="164.88" y2="383.66"/>
        </g>
        <g>
          <line class="cls-12" x1="231.62" y1="386.5" x2="231.62" y2="369.04"/>
          <line class="cls-12" x1="240.35" y1="377.77" x2="222.89" y2="377.77"/>
        </g>
        <line class="cls-12" x1="240.35" y1="320.04" x2="222.89" y2="320.04"/>
        <g>
          <line class="cls-12" x1="225.13" y1="268.15" x2="238.11" y2="256.48"/>
          <line class="cls-12" x1="237.45" y1="268.81" x2="225.79" y2="255.82"/>
        </g>
        <g>
          <line class="cls-12" x1="231.62" y1="195.86" x2="231.62" y2="195.86"/>
          <line class="cls-12" x1="240.35" y1="204.58" x2="222.89" y2="204.58"/>
          <line class="cls-12" x1="231.62" y1="213.37" x2="231.62" y2="213.37"/>
        </g>
        <g>
          <line class="cls-12" x1="60.86" y1="258.92" x2="60.86" y2="274.52"/>
          <line class="cls-12" x1="66.31" y1="265.31" x2="48.86" y2="265.31"/>
          <line class="cls-12" x1="48.86" y1="265.31" x2="58.26" y2="250.11"/>
        </g>
        <g>
          <line class="cls-12" x1="122.17" y1="250.18" x2="109.81" y2="250.18"/>
          <line class="cls-12" x1="109.81" y1="260.97" x2="109.81" y2="250.18"/>
          <path class="cls-11" d="M109.86,261.02c1.44-1.51,3.48-2.45,5.73-2.45,4.38,0,7.94,3.55,7.94,7.94s-3.55,7.94-7.94,7.94c-3.19,0-5.94-1.88-7.2-4.6"/>
        </g>
        <g>
          <circle class="cls-11" cx="173.84" cy="267.42" r="7.83"/>
          <path class="cls-11" d="M166,267.42c-.17-.54.03-8.94-.03-9.52-.39-4.37,2.83-8.22,7.2-8.61,3.18-.28,6.08,1.34,7.58,3.94"/>
        </g>
        <g>
          <circle class="cls-11" cx="173.61" cy="199.42" r="7.83"/>
          <path class="cls-11" d="M181.44,199.42c.17.54-.03,8.94.03,9.52.39,4.37-2.83,8.22-7.2,8.61-3.18.28-6.08-1.34-7.58-3.94"/>
        </g>
        <g>
          <path class="cls-11" d="M121.58,197.64c0,3.3-2.68,4.92-5.98,4.92s-5.98-1.62-5.98-4.92,2.68-5.98,5.98-5.98,5.98,2.68,5.98,5.98Z"/>
          <path class="cls-11" d="M116.25,202.55c4.69.87,6.83,4.38,6.83,7.48,0,4.13-3.35,7.48-7.48,7.48s-7.48-3.35-7.48-7.48c0-3.36,2.15-6.89,6.83-7.48"/>
        </g>
        <polyline class="cls-11" points="54.6 217.51 66.31 191.66 48.86 191.66"/>
        <path class="cls-11" d="M239.24,140.01c-1.8-1.88-4.34-3.06-7.16-3.06-5.47,0-9.91,4.44-9.91,9.91s4.44,9.91,9.91,9.91c3.98,0,6.52-1.87,8-4.06"/>
        <g>
          <g>
            <path class="cls-13" d="M69.34,133.82h0c5.04,0,9.14,4.09,9.14,9.14v16.29c0,1.88-1.53,3.41-3.41,3.41h-14.86v-19.7c0-5.04,4.09-9.14,9.14-9.14Z" transform="translate(120.85 -7.09) rotate(43.41)"/>
            <path class="cls-13" d="M52.65,133.95h14.86c1.88,0,3.41,1.53,3.41,3.41v16.29c0,5.04-4.09,9.14-9.14,9.14h0c-5.04,0-9.14-4.09-9.14-9.14v-19.7h0Z" transform="translate(212.03 205.46) rotate(133.41)"/>
          </g>
          <g>
            <path class="cls-13" d="M165.06,133.82h0c5.04,0,9.14,4.09,9.14,9.14v16.29c0,1.88-1.53,3.41-3.41,3.41h-14.86v-19.7c0-5.04,4.09-9.14,9.14-9.14Z" transform="translate(147.04 -72.88) rotate(43.41)"/>
            <path class="cls-13" d="M148.37,133.95h14.86c1.88,0,3.41,1.53,3.41,3.41v16.29c0,5.04-4.09,9.14-9.14,9.14h0c-5.04,0-9.14-4.09-9.14-9.14v-19.7h0Z" transform="translate(373.54 135.93) rotate(133.41)"/>
          </g>
          <g>
            <path class="cls-13" d="M117.2,133.82h0c5.04,0,9.14,4.09,9.14,9.14v16.29c0,1.88-1.53,3.41-3.41,3.41h-14.86v-19.7c0-5.04,4.09-9.14,9.14-9.14Z" transform="translate(133.95 -39.99) rotate(43.41)"/>
            <path class="cls-13" d="M100.51,133.95h14.86c1.88,0,3.41,1.53,3.41,3.41v16.29c0,5.04-4.09,9.14-9.14,9.14h0c-5.04,0-9.14-4.09-9.14-9.14v-19.7h0Z" transform="translate(292.79 170.69) rotate(133.41)"/>
          </g>
        </g>
      </g>
    </g>
  </g>
</svg>