<?xml version="1.0" encoding="UTF-8"?>
<svg id="Camada_2" data-name="Camada 2" xmlns="http://www.w3.org/2000/svg" viewBox="0 0 44.38 44">
  <defs>
    <style>
      .cls-1 {
        fill: #f2afef;
      }

      .cls-1, .cls-2 {
        stroke-width: 0px;
      }

      .cls-2 {
        fill: #ffecec;
      }

      .cls-3 {
        stroke: #33186b;
        stroke-width: 5px;
      }

      .cls-3, .cls-4, .cls-5 {
        fill: none;
      }

      .cls-3, .cls-4, .cls-6 {
        stroke-linecap: round;
        stroke-linejoin: round;
      }

      .cls-4, .cls-5, .cls-6 {
        stroke: #ffecec;
      }

      .cls-5 {
        stroke-miterlimit: 10;
      }

      .cls-6 {
        fill: #fae7f3;
      }
    </style>
  </defs>
  <g id="botoes_up">
    <g>
      <rect id="adicao_up" class="cls-6" x=".88" y=".5" width="43" height="43" rx="9.23" ry="9.23"/>
      <g>
        <g>
          <line class="cls-1" x1="39.29" y1="42.97" x2="41.89" y2="39.98"/>
          <line class="cls-4" x1="39.29" y1="42.97" x2="41.89" y2="39.98"/>
          <line class="cls-4" x1="39.29" y1="42.97" x2="41.89" y2="39.98"/>
          <line class="cls-2" x1="39.29" y1="42.97" x2="41.89" y2="39.98"/>
        </g>
        <g>
          <line class="cls-5" x1=".5" y1="6.74" x2="3.09" y2="3.75"/>
          <line class="cls-4" x1=".5" y1="6.74" x2="3.09" y2="3.75"/>
          <line class="cls-2" x1=".5" y1="6.74" x2="3.09" y2="3.75"/>
        </g>
      </g>
      <g>
        <path class="cls-3" d="M15.04,14.52c.83-3.5,4.19-5.87,7.83-5.39,3.89.51,5.75,4.48,5.04,7.54-.56,2.44-2.61,4.37-5.53,4.36"/>
        <path class="cls-3" d="M22.38,21.03c4.34,0,7.51,3.62,6.32,8.54-1.07,4.39-6.28,6.4-10.51,4.83-2.25-.83-3.91-2.55-4.75-4.61"/>
      </g>
    </g>
  </g>
</svg>